<?xml version="1.0" standalone="no"?>
<!DOCTYPE svg PUBLIC "-//W3C//DTD SVG 20010904//EN"
 "http://www.w3.org/TR/2001/REC-SVG-20010904/DTD/svg10.dtd">
<svg version="1.0" xmlns="http://www.w3.org/2000/svg"
 width="330.000000pt" height="332.000000pt" viewBox="0 0 330.000000 332.000000"
 preserveAspectRatio="xMidYMid meet">

<g transform="translate(0.000000,332.000000) scale(0.100000,-0.100000)"
fill="#000000" stroke="none">
<path d="M612 2783 l3 -176 490 -295 c270 -162 498 -297 508 -299 16 -5 17 7
17 159 0 158 -1 165 -22 185 -13 12 -115 77 -228 145 -526 318 -759 458 -765
458 -3 0 -4 -79 -3 -177z"/>
<path d="M2705 2941 c-16 -10 -237 -143 -490 -295 -253 -153 -466 -284 -472
-293 -16 -21 -19 -343 -3 -343 5 0 76 40 157 89 81 49 303 182 493 296 190
114 348 212 352 219 10 15 10 346 1 346 -5 0 -21 -9 -38 -19z"/>
<path d="M608 2328 c-2 -73 -2 -152 0 -175 l3 -43 501 -300 c275 -165 504
-300 509 -300 5 0 9 76 9 168 0 148 -2 171 -17 184 -19 17 -988 598 -997 598
-3 0 -6 -60 -8 -132z"/>
<path d="M2250 2169 c-267 -160 -493 -298 -502 -306 -16 -14 -18 -37 -18 -186
0 -151 2 -168 16 -163 24 9 934 555 972 583 l32 24 0 170 c0 93 -3 169 -7 169
-5 0 -226 -131 -493 -291z"/>
<path d="M608 1824 c-2 -190 -1 -195 25 -220 20 -19 949 -578 982 -590 13 -5
15 17 15 159 0 142 -2 168 -17 186 -10 11 -229 147 -488 302 -258 155 -480
288 -492 297 l-23 14 -2 -148z"/>
<path d="M2257 1676 c-268 -161 -496 -301 -507 -311 -18 -17 -20 -31 -20 -187
0 -92 3 -168 6 -168 18 0 996 595 1004 611 6 11 9 85 8 183 l-3 164 -488 -292z"/>
<path d="M1190 645 l0 -145 90 0 90 0 0 30 0 30 -60 0 -60 0 0 30 c0 29 1 30
50 30 49 0 50 1 50 30 0 29 -1 30 -50 30 -47 0 -50 2 -50 25 0 24 3 25 60 25
l60 0 0 30 0 30 -90 0 -90 0 0 -145z"/>
<path d="M1410 645 l0 -145 90 0 90 0 0 30 0 30 -60 0 -60 0 0 115 0 115 -30
0 -30 0 0 -145z"/>
<path d="M1610 765 c0 -16 6 -25 15 -25 12 0 15 -17 15 -95 0 -78 -3 -95 -15
-95 -9 0 -15 -9 -15 -25 0 -24 3 -25 55 -25 52 0 55 1 55 25 0 14 -4 25 -10
25 -6 0 -10 38 -10 95 0 57 4 95 10 95 6 0 10 11 10 25 0 24 -3 25 -55 25 -52
0 -55 -1 -55 -25z"/>
<path d="M1750 760 c0 -28 3 -30 35 -30 l35 0 0 -116 0 -115 31 3 31 3 0 113
-1 112 40 0 c37 0 39 2 39 30 l0 30 -105 0 -105 0 0 -30z"/>
<path d="M1990 645 l0 -145 90 0 90 0 0 30 0 30 -60 0 -60 0 0 30 c0 30 1 30
55 30 54 0 55 0 55 30 0 30 -1 30 -55 30 -52 0 -55 1 -55 25 0 24 3 25 60 25
l60 0 0 30 0 30 -90 0 -90 0 0 -145z"/>
<path d="M1254 306 c-10 -51 -9 -53 8 -42 15 9 21 8 28 -4 12 -19 12 -12 -1
50 -6 27 -14 50 -18 50 -4 0 -12 -24 -17 -54z m22 -24 c-12 -11 -18 7 -10 30
l8 23 4 -23 c2 -13 1 -26 -2 -30z"/>
<path d="M1342 312 c-2 -39 2 -54 13 -59 9 -3 19 -3 22 1 11 10 16 106 6 106
-6 0 -8 -11 -5 -25 5 -30 -5 -75 -18 -75 -5 0 -11 24 -13 53 l-3 52 -2 -53z"/>
<path d="M1427 352 c6 -4 13 -30 16 -57 l3 -50 2 52 c1 30 7 53 15 56 6 3 -1
6 -18 6 -17 0 -25 -3 -18 -7z"/>
<path d="M1514 347 c-3 -8 -4 -32 -2 -53 2 -31 7 -39 23 -39 17 0 20 7 20 50
0 39 -4 50 -18 53 -9 2 -20 -3 -23 -11z m34 -39 c-4 -59 -28 -63 -28 -4 0 35
4 46 16 46 12 0 14 -9 12 -42z"/>
<path d="M1601 303 c1 -48 3 -53 9 -28 6 23 8 25 9 8 0 -12 6 -25 12 -29 9 -5
10 1 5 22 -4 16 -10 41 -13 57 -9 48 -23 29 -22 -30z"/>
<path d="M1646 338 c-9 -35 -7 -50 6 -42 8 5 9 0 6 -14 -4 -12 -2 -25 3 -28 5
-3 9 20 9 50 0 57 -13 75 -24 34z"/>
<path d="M1717 353 c-4 -3 -7 -26 -7 -50 0 -31 5 -45 16 -50 20 -7 34 13 34
49 0 48 -21 73 -43 51z m28 -48 c0 -22 -5 -40 -12 -42 -9 -3 -13 9 -13 42 0
33 4 45 13 43 7 -3 12 -21 12 -43z"/>
<path d="M1797 352 c6 -4 13 -30 16 -57 l3 -50 2 52 c1 30 7 53 15 56 6 3 -1
6 -18 6 -17 0 -25 -3 -18 -7z"/>
<path d="M1884 347 c-3 -8 -4 -32 -2 -53 2 -31 7 -39 23 -39 17 0 20 7 20 50
0 39 -4 50 -18 53 -9 2 -20 -3 -23 -11z m31 -42 c0 -22 -5 -40 -12 -42 -9 -3
-13 9 -13 42 0 33 4 45 13 43 7 -3 12 -21 12 -43z"/>
<path d="M1971 303 c1 -32 4 -46 6 -30 2 15 8 27 13 27 11 0 21 -30 14 -41 -3
-5 -1 -9 5 -9 8 0 9 42 2 103 -1 4 -10 7 -21 7 -18 0 -20 -6 -19 -57z m32 41
c8 -8 -3 -34 -14 -34 -5 0 -9 9 -9 20 0 19 11 26 23 14z"/>
<path d="M2077 353 c-3 -4 -8 -30 -11 -58 -3 -27 -3 -44 0 -37 3 6 12 12 19
12 7 0 16 -6 19 -12 3 -7 3 10 0 37 -6 50 -17 74 -27 58z m11 -72 c-15 -5 -18
3 -11 29 l7 25 6 -25 c3 -14 2 -27 -2 -29z"/>
</g>
</svg>
