<?xml version="1.0" standalone="no"?>
<!DOCTYPE svg PUBLIC "-//W3C//DTD SVG 20010904//EN"
 "http://www.w3.org/TR/2001/REC-SVG-20010904/DTD/svg10.dtd">
<svg version="1.0" xmlns="http://www.w3.org/2000/svg"
 width="395.000000pt" height="398.000000pt" viewBox="0 0 395.000000 398.000000"
 preserveAspectRatio="xMidYMid meet">

<g transform="translate(0.000000,398.000000) scale(0.100000,-0.100000)"
fill="#000000" stroke="none">
<path d="M0 1990 l0 -1990 1975 0 1975 0 0 1990 0 1990 -1975 0 -1975 0 0
-1990z m2272 1560 c488 -83 916 -391 1156 -830 245 -450 256 -1014 29 -1479
-415 -849 -1467 -1166 -2280 -687 -395 232 -667 610 -768 1068 -33 147 -38
436 -11 595 105 611 543 1109 1137 1290 213 64 511 82 737 43z"/>
<path d="M1352 2423 l3 -107 45 -26 c25 -15 155 -93 289 -175 135 -81 251
-149 258 -152 10 -4 13 17 13 100 l0 106 -57 34 c-32 19 -167 100 -300 180
-133 81 -245 147 -248 147 -3 0 -4 -48 -3 -107z"/>
<path d="M2340 2351 l-295 -179 -3 -106 c-1 -58 0 -106 2 -106 3 0 141 81 306
181 l300 180 0 105 c0 57 -3 104 -7 104 -5 0 -141 -81 -303 -179z"/>
<path d="M1352 2123 l3 -107 295 -178 c162 -98 298 -178 302 -178 5 0 8 47 8
104 l0 104 -301 181 c-165 100 -302 181 -305 181 -3 0 -3 -48 -2 -107z"/>
<path d="M2359 2062 c-151 -92 -286 -174 -298 -182 -22 -15 -23 -22 -22 -115
1 -55 4 -101 6 -103 2 -2 138 77 302 175 l298 180 3 106 c1 59 -1 107 -5 106
-4 0 -132 -75 -284 -167z"/>
<path d="M1348 1838 c-2 -51 0 -100 4 -110 4 -9 126 -87 270 -174 145 -86 275
-166 290 -176 14 -10 31 -18 37 -18 13 0 16 188 3 206 -6 10 -587 364 -597
364 -2 0 -5 -42 -7 -92z"/>
<path d="M2340 1750 l-295 -178 -3 -106 c-1 -58 1 -106 5 -106 4 0 141 81 303
178 l295 178 3 107 c1 59 -1 107 -5 107 -4 -1 -141 -81 -303 -180z"/>
</g>
</svg>
