<?xml version="1.0" standalone="no"?>
<!DOCTYPE svg PUBLIC "-//W3C//DTD SVG 20010904//EN"
 "http://www.w3.org/TR/2001/REC-SVG-20010904/DTD/svg10.dtd">
<svg version="1.0" xmlns="http://www.w3.org/2000/svg"
 width="607.000000pt" height="626.000000pt" viewBox="0 0 607.000000 626.000000"
 preserveAspectRatio="xMidYMid meet">

<g transform="translate(0.000000,626.000000) scale(0.100000,-0.100000)"
fill="#000000" stroke="none">
<path d="M340 5757 c-14 -7 -33 -28 -43 -47 -16 -33 -17 -177 -15 -2697 l3
-2663 33 -32 32 -33 2621 -3 c2330 -2 2623 0 2649 13 65 34 60 -192 60 2741
l0 2666 -34 34 -34 34 -2624 0 c-2077 0 -2628 -3 -2648 -13z m747 -280 c70
-40 382 -226 588 -352 83 -50 266 -160 407 -245 719 -431 748 -450 769 -485
17 -27 19 -55 19 -317 0 -186 -4 -289 -10 -293 -8 -5 -573 326 -875 512 -22
14 -110 67 -195 118 -85 51 -173 104 -195 117 -22 14 -155 94 -296 178 -175
104 -260 160 -268 177 -10 22 -17 623 -7 623 2 0 30 -15 63 -33z m3863 -261
c0 -226 -3 -291 -15 -318 -16 -39 -18 -41 -295 -205 -308 -183 -1056 -631
-1130 -678 -142 -89 -396 -235 -404 -232 -7 2 -12 98 -14 288 -2 261 -1 287
16 319 15 26 52 54 160 120 78 47 250 150 381 230 282 170 329 199 396 238 28
16 183 109 345 207 426 258 542 325 551 319 5 -3 9 -133 9 -288z m-3795 -681
c55 -34 444 -268 865 -520 882 -528 826 -493 839 -523 7 -14 11 -134 11 -323
l0 -299 -57 29 c-32 16 -87 47 -123 69 -36 22 -328 198 -650 391 -322 193
-592 356 -600 361 -8 5 -98 60 -200 120 -102 61 -193 120 -202 132 -16 18 -18
49 -18 322 0 167 3 306 6 309 4 4 12 3 18 0 6 -4 56 -35 111 -68z m3789 49 c3
-9 6 -140 6 -292 0 -325 4 -312 -111 -383 -340 -210 -1718 -1029 -1732 -1029
-16 0 -17 23 -17 299 0 284 1 300 20 324 11 14 35 34 53 45 17 11 190 113 382
227 193 114 366 218 385 230 19 12 127 78 240 145 113 67 221 132 240 145 19
12 87 52 150 90 63 37 129 76 145 87 109 68 212 127 221 128 7 0 15 -7 18 -16z
m-3656 -1031 c116 -70 452 -272 745 -448 793 -476 807 -485 823 -517 12 -23
14 -80 12 -320 -3 -264 -5 -293 -19 -290 -13 2 -350 198 -464 271 -16 10 -190
114 -385 231 -195 116 -371 222 -390 235 -19 12 -143 86 -275 164 -243 144
-284 172 -304 209 -7 14 -11 120 -11 322 l0 301 28 -15 c15 -8 123 -73 240
-143z m3662 -137 c0 -315 -3 -335 -62 -379 -18 -14 -141 -89 -273 -168 -132
-78 -314 -187 -405 -242 -91 -55 -223 -135 -295 -177 -71 -43 -281 -168 -465
-278 -251 -151 -338 -198 -347 -190 -10 8 -13 75 -13 293 0 340 -8 317 150
414 527 320 1685 1011 1696 1011 12 0 14 -50 14 -284z m-2900 -1946 l0 -50
-110 0 -110 0 0 -50 0 -50 100 0 100 0 0 -50 0 -50 -100 0 -100 0 0 -65 0 -65
110 0 110 0 0 -50 0 -50 -170 0 -170 0 0 265 0 265 170 0 170 0 0 -50z m370
-165 l0 -215 110 0 110 0 0 -50 0 -50 -170 0 -170 0 0 265 0 265 60 0 60 0 0
-215z m640 170 c0 -38 -3 -45 -20 -45 -19 0 -20 -7 -20 -175 0 -168 1 -175 20
-175 17 0 20 -7 20 -45 l0 -45 -100 0 -100 0 0 45 c0 38 3 45 20 45 19 0 20 7
20 175 0 168 -1 175 -20 175 -17 0 -20 7 -20 45 l0 45 100 0 100 0 0 -45z
m620 -5 l0 -50 -65 0 -65 0 0 -215 0 -215 -60 0 -60 0 0 215 0 215 -70 0 -70
0 0 50 0 50 195 0 195 0 0 -50z m577 0 l2 -50 -110 0 -109 0 0 -50 0 -50 95 0
95 0 0 -50 0 -50 -95 0 -95 0 0 -65 0 -65 109 0 108 0 -1 -50 0 -50 -171 2
-170 3 -2 254 c-1 140 0 259 3 263 3 4 80 8 172 8 l167 0 2 -50z m-1973 -829
c20 -109 20 -111 1 -111 -8 0 -15 9 -15 20 0 15 -7 20 -25 20 -18 0 -25 -5
-25 -20 0 -12 -7 -20 -16 -20 -12 0 -15 6 -10 23 3 12 11 51 17 87 14 87 15
90 37 90 16 0 22 -14 36 -89z m108 2 c2 -70 6 -88 18 -88 12 0 16 18 18 88 2
68 6 87 17 87 12 0 15 -16 15 -74 0 -99 -11 -126 -49 -126 -41 0 -51 23 -51
119 0 64 3 81 15 81 11 0 15 -19 17 -87z m228 77 c0 -5 -9 -10 -20 -10 -19 0
-20 -7 -20 -90 0 -73 -3 -90 -15 -90 -12 0 -15 17 -15 90 0 83 -1 90 -20 90
-11 0 -20 5 -20 10 0 6 25 10 55 10 30 0 55 -4 55 -10z m138 -2 c16 -16 16
-160 0 -176 -14 -14 -47 -15 -68 -2 -11 7 -15 29 -15 90 0 61 4 83 15 90 21
13 54 12 68 -2z m128 -51 c6 -32 14 -60 16 -63 3 -3 9 17 12 43 10 72 15 83
37 83 17 0 19 -8 19 -100 0 -82 -3 -100 -15 -100 -11 0 -15 13 -16 53 l-2 52
-10 -53 c-13 -69 -36 -67 -53 3 l-12 50 -1 -52 c0 -29 -5 -53 -11 -53 -6 0
-10 40 -10 101 0 89 2 100 17 97 12 -2 21 -20 29 -61z m234 44 c5 -11 10 -47
10 -81 0 -77 -12 -100 -50 -100 -38 0 -50 23 -50 100 0 77 12 100 50 100 19 0
33 -7 40 -19z m170 9 c0 -5 -9 -10 -20 -10 -19 0 -20 -7 -20 -90 0 -73 -3 -90
-15 -90 -12 0 -15 17 -15 90 0 72 -3 90 -14 90 -8 0 -18 5 -21 10 -4 6 15 10
49 10 31 0 56 -4 56 -10z m138 -2 c16 -16 16 -160 0 -176 -22 -22 -64 -14 -76
13 -17 37 -15 126 4 153 17 24 53 29 72 10z m160 0 c5 -7 10 -52 10 -100 1
-68 -2 -88 -13 -88 -9 0 -15 14 -17 37 -2 26 -8 39 -20 41 -13 3 -16 -2 -13
-20 6 -27 -3 -58 -16 -58 -5 0 -9 45 -9 100 l0 100 34 0 c18 0 38 -6 44 -12z
m158 -25 c3 -21 12 -66 19 -100 11 -55 11 -63 -2 -63 -8 0 -17 9 -20 20 -3 11
-14 20 -25 20 -11 0 -22 -9 -25 -20 -3 -11 -11 -20 -18 -20 -13 0 -11 17 16
148 8 40 15 52 29 52 14 0 21 -10 26 -37z"/>
<path d="M2241 669 c-1 -9 -4 -31 -7 -48 -5 -24 -3 -31 10 -31 10 0 16 8 15
23 -1 29 -17 77 -18 56z"/>
<path d="M2705 688 c-3 -13 -5 -49 -3 -79 2 -40 7 -54 18 -54 12 0 15 15 15
74 0 49 -4 76 -12 78 -7 3 -15 -6 -18 -19z"/>
<path d="M3064 697 c-3 -8 -4 -43 -2 -78 2 -49 7 -64 18 -64 12 0 15 15 15 74
0 51 -4 76 -12 78 -7 3 -15 -2 -19 -10z"/>
<path d="M3375 688 c-3 -13 -5 -49 -3 -79 2 -40 7 -54 18 -54 12 0 15 15 15
74 0 49 -4 76 -12 78 -7 3 -15 -6 -18 -19z"/>
<path d="M3539 708 c0 -1 -2 -20 -3 -41 -1 -29 2 -37 14 -35 19 4 21 69 3 76
-7 2 -13 2 -14 0z"/>
<path d="M3710 654 c0 -10 -3 -29 -6 -41 -5 -18 -2 -23 14 -23 18 0 19 4 12
36 -10 41 -20 56 -20 28z"/>
</g>
</svg>
